<svg xmlns="http://www.w3.org/2000/svg" width="266.44" height="87.399"><path data-name="前面オブジェクトで型抜き 4" d="M230.78 87.4a34.15 34.15 0 01-14.084-2.912 31.649 31.649 0 01-7.637-4.848l.669-.743a30.63 30.63 0 007.377 4.679 34.68 34.68 0 0027.417 0 31.039 31.039 0 0010.971-8.25c6.506-7.608 9.945-18.544 9.945-31.625s-3.439-24.015-9.945-31.625a31.024 31.024 0 00-10.971-8.25 34.683 34.683 0 00-27.417 0 30.974 30.974 0 00-10.937 8.249c-6.5 7.617-9.93 18.553-9.93 31.626a60.571 60.571 0 002.23 16.871 40.386 40.386 0 006.538 13.314l-.68.755a41.2 41.2 0 01-6.776-13.648 61.433 61.433 0 01-2.312-17.292c0-13.315 3.517-24.475 10.171-32.274a31.942 31.942 0 0111.286-8.513 35.675 35.675 0 0128.236 0 32.021 32.021 0 0111.323 8.512c6.663 7.79 10.185 18.951 10.185 32.275s-3.522 24.484-10.185 32.275a32.017 32.017 0 01-11.323 8.512A34.418 34.418 0 01230.78 87.4zm-153.579-.089v-1a43.525 43.525 0 0014.681-3.33 35 35 0 0011.533-7.945 38.058 38.058 0 008.328-13.814 56.966 56.966 0 002.978-18.959 59.91 59.91 0 00-2.435-17.766 35.219 35.219 0 00-7.025-12.908 29.516 29.516 0 00-11.236-7.894A40.471 40.471 0 0078.86 1.003a36.938 36.938 0 00-11.878 1.884 29.034 29.034 0 00-9.592 5.361 24.5 24.5 0 00-6.409 8.411 26.242 26.242 0 00-2.341 11.084 25.348 25.348 0 002.147 10.459 22.926 22.926 0 005.931 7.959 26.79 26.79 0 009 5.089 35.06 35.06 0 0011.343 1.793 35.473 35.473 0 0012.663-2.142 22.932 22.932 0 009.4-6.443l.88-1.026v1.472a40.968 40.968 0 01-1.829 12.724 24.918 24.918 0 01-5.263 9.23 21.931 21.931 0 01-8.315 5.6 30.171 30.171 0 01-10.894 1.87c-6.426 0-11.58-1.262-15.756-3.858l-5.315 10.853a32.652 32.652 0 009.474 3.748 49.349 49.349 0 008.238 1.217v1a50.219 50.219 0 01-8.47-1.246 33.12 33.12 0 01-10.159-4.115l-.377-.24 6.207-12.671.475.312c4.088 2.69 9.218 4 15.684 4a29.226 29.226 0 0010.534-1.8 20.943 20.943 0 007.939-5.341 23.9 23.9 0 005.048-8.864 39.076 39.076 0 001.766-11.227 24.349 24.349 0 01-8.91 5.747 36.478 36.478 0 01-13.018 2.207 36.1 36.1 0 01-11.667-1.847 27.821 27.821 0 01-9.332-5.281 23.9 23.9 0 01-6.187-8.3 26.36 26.36 0 01-2.235-10.868 27.229 27.229 0 012.434-11.5 25.492 25.492 0 016.667-8.752 30.06 30.06 0 019.919-5.548 37.892 37.892 0 0112.2-1.936 41.5 41.5 0 0115.537 2.764 30.5 30.5 0 0111.613 8.16 36.183 36.183 0 017.228 13.271 60.864 60.864 0 012.481 18.064 57.862 57.862 0 01-3.035 19.292 39.066 39.066 0 01-8.548 14.175 36 36 0 01-11.86 8.174A44.548 44.548 0 0177.2 87.311zm79.023-1.111H138.45l31.56-70.8h-31.73v14.28h-15.52V1.201h3.322v1h-2.322v26.48h13.52V14.402h34.271l-31.56 70.8h15.584l13.927-31.387.921.391-14.2 32zm-138.464 0V51.6h1v33.6h14.6V5.294h.105V1.201h.9v85h-16.6zm213.02-12.359a17.556 17.556 0 01-8.055-1.834 17.176 17.176 0 01-6.29-5.594 28.17 28.17 0 01-4.045-9.4 62.643 62.643 0 010-26.614c.272-1.1.588-2.168.939-3.175l.922.391c-.33.951-.629 1.968-.89 3.023a61.621 61.621 0 000 26.134 27.138 27.138 0 003.894 9.072 16.207 16.207 0 005.924 5.276 16.606 16.606 0 007.6 1.725 16.832 16.832 0 007.671-1.726 16.225 16.225 0 005.959-5.276 27 27 0 003.906-9.071 61.516 61.516 0 000-26.134 26.958 26.958 0 00-3.906-9.071 16.229 16.229 0 00-5.959-5.276 16.822 16.822 0 00-7.671-1.726 16.6 16.6 0 00-7.6 1.725 16.171 16.171 0 00-5.854 5.177l-.941-.4.026-.037.026-.037a17.181 17.181 0 016.29-5.595 17.6 17.6 0 018.055-1.833 17.848 17.848 0 018.122 1.833 17.2 17.2 0 016.327 5.595 28.04 28.04 0 014.059 9.4 62.539 62.539 0 010 26.614 28.017 28.017 0 01-4.059 9.4 17.213 17.213 0 01-6.327 5.6 17.825 17.825 0 01-8.123 1.833zm-57.575-25.908l-.92-.391 15.755-35.507V2.201h-55.1v-1h56.1v11.045l-.042.1-15.792 35.589zM18.759 43.885h-1v-28.6H0V1.205h26.6v1H1v12.071h17.759v29.6zm61.3-2.084c-5.138 0-9.477-1.374-12.548-3.973a14.664 14.664 0 010-21.612 17.788 17.788 0 0110.549-3.923v1a16.782 16.782 0 00-9.9 3.68 13.667 13.667 0 000 20.089c2.888 2.444 7 3.736 11.9 3.736a20.946 20.946 0 006.754-1.06 15.79 15.79 0 005.221-2.916 13.2 13.2 0 003.458-15.274 12.3 12.3 0 00-3.236-4.322 16.264 16.264 0 00-7.339-3.468v-1.021a17.316 17.316 0 017.992 3.731 13.294 13.294 0 013.5 4.671 14.2 14.2 0 01-3.722 16.442 16.775 16.775 0 01-5.549 3.1A21.963 21.963 0 0180.06 41.8z" fill="#fff" opacity=".997"/></svg>